# xmcd
#
# Track frame offsets: 
#        150
#        12710
#        25507
#        36550
#        49440
#        64440
#        75215
#        84955
#        98830
#        113122
#        125795
#        138695
#
# Disc length: 2006 seconds
#
# Revision: 1
# Processed by: cddbd v1.5.2PL0 Copyright (c) Steve Scherf et al.
# Submitted via: ExactAudioCopy v0.95b4
#
DISCID=a507d40c
DTITLE=Roy Acuff - Songs Of The Smokey Mountains
DYEAR=2002
DGENRE=Bluegrass
TTITLE0=Wabash Cannonball
TTITLE1=The Great Speckled Bird
TTITLE2=I'm Building A Home (In The Sky)
TTITLE3=Pins And Needles (In My Heart)
TTITLE4=The Great Judgement Morning
TTITLE5=Fire Ball Mail
TTITLE6=Night Train To Memphis
TTITLE7=The Wreck On The Highway
TTITLE8=The Precious Jewel
TTITLE9=The Great Titanic
TTITLE10=Lonely Mound Of Clay
TTITLE11=Come Back Little Pal
EXTD=
EXTT0=
EXTT1=
EXTT2=
EXTT3=
EXTT4=
EXTT5=
EXTT6=
EXTT7=
EXTT8=
EXTT9=
EXTT10=
EXTT11=
PLAYORDER=
